<svg width="32" height="32" viewBox="0 0 32 32" fill="none" xmlns="http://www.w3.org/2000/svg">
<path d="M12.6667 12H5.99999C4.89733 12 3.99999 11.1027 3.99999 10V6C3.99999 4.89733 4.89733 4 5.99999 4H12.6667C13.7693 4 14.6667 4.89733 14.6667 6V10C14.6667 11.1027 13.7693 12 12.6667 12ZM5.99999 5.33333C5.63333 5.33333 5.33333 5.632 5.33333 6V10C5.33333 10.368 5.63333 10.6667 5.99999 10.6667H12.6667C13.0333 10.6667 13.3333 10.368 13.3333 10V6C13.3333 5.632 13.0333 5.33333 12.6667 5.33333H5.99999Z" fill="#C7D0D9"/>
<path d="M26 28H19.3333C18.2306 28 17.3333 27.1027 17.3333 26V22C17.3333 20.8973 18.2306 20 19.3333 20H26C27.1026 20 28 20.8973 28 22V26C28 27.1027 27.1026 28 26 28ZM19.3333 21.3333C18.9666 21.3333 18.6666 21.632 18.6666 22V26C18.6666 26.368 18.9666 26.6667 19.3333 26.6667H26C26.3666 26.6667 26.6666 26.368 26.6666 26V22C26.6666 21.632 26.3666 21.3333 26 21.3333H19.3333Z" fill="#C7D0D9"/>
<path d="M26 17.3333H19.3333C18.2306 17.3333 17.3333 16.436 17.3333 15.3333V6C17.3333 4.89733 18.2306 4 19.3333 4H26C27.1026 4 28 4.89733 28 6V15.3333C28 16.436 27.1026 17.3333 26 17.3333ZM19.3333 5.33333C18.9666 5.33333 18.6666 5.632 18.6666 6V15.3333C18.6666 15.7013 18.9666 16 19.3333 16H26C26.3666 16 26.6666 15.7013 26.6666 15.3333V6C26.6666 5.632 26.3666 5.33333 26 5.33333H19.3333Z" fill="#C7D0D9"/>
<path d="M12.6667 28H5.99999C4.89733 28 3.99999 27.1027 3.99999 26V16.6667C3.99999 15.564 4.89733 14.6667 5.99999 14.6667H12.6667C13.7693 14.6667 14.6667 15.564 14.6667 16.6667V26C14.6667 27.1027 13.7693 28 12.6667 28ZM5.99999 16C5.63333 16 5.33333 16.2987 5.33333 16.6667V26C5.33333 26.368 5.63333 26.6667 5.99999 26.6667H12.6667C13.0333 26.6667 13.3333 26.368 13.3333 26V16.6667C13.3333 16.2987 13.0333 16 12.6667 16H5.99999Z" fill="#C7D0D9"/>
<path d="M28.6667 32H3.33333C1.49467 32 0 30.504 0 28.6667V3.33333C0 1.496 1.49467 0 3.33333 0H28.6667C30.5053 0 32 1.496 32 3.33333V28.6667C32 30.504 30.5053 32 28.6667 32ZM3.33333 1.33333C2.23067 1.33333 1.33333 2.23067 1.33333 3.33333V28.6667C1.33333 29.7693 2.23067 30.6667 3.33333 30.6667H28.6667C29.7693 30.6667 30.6667 29.7693 30.6667 28.6667V3.33333C30.6667 2.23067 29.7693 1.33333 28.6667 1.33333H3.33333Z" fill="#C7D0D9"/>
</svg>
