<svg width="32" height="32" viewBox="0 0 32 32" fill="none" xmlns="http://www.w3.org/2000/svg">
<path d="M10.2921 25.2502V19.9181H11.8668C12.338 19.9181 12.7555 20.0231 13.1192 20.2331C13.4855 20.443 13.7687 20.7409 13.9689 21.1266C14.1691 21.5124 14.2691 21.9543 14.2691 22.4523V22.7197C14.2691 23.225 14.1678 23.6694 13.9652 24.0527C13.765 24.436 13.4781 24.7314 13.1046 24.9389C12.7335 25.1464 12.3075 25.2502 11.8265 25.2502H10.2921ZM11.2186 20.6652V24.5104H11.8228C12.3087 24.5104 12.681 24.3591 12.9398 24.0563C13.201 23.7512 13.3341 23.3141 13.339 22.7453V22.4487C13.339 21.87 13.2132 21.4281 12.9618 21.123C12.7103 20.8178 12.3453 20.6652 11.8668 20.6652H11.2186Z" fill="#C7D0D9"/>
<path d="M17.4735 25.2502C17.4345 25.1745 17.4003 25.0512 17.371 24.8803C17.0878 25.1757 16.7411 25.3234 16.3309 25.3234C15.933 25.3234 15.6083 25.2099 15.3568 24.9829C15.1053 24.7558 14.9796 24.475 14.9796 24.1406C14.9796 23.7182 15.1359 23.3947 15.4484 23.1701C15.7633 22.943 16.2125 22.8295 16.796 22.8295H17.3417V22.5695C17.3417 22.3644 17.2843 22.2009 17.1696 22.0788C17.0548 21.9543 16.8803 21.892 16.6459 21.892C16.4432 21.892 16.2772 21.9433 16.1478 22.0458C16.0184 22.1459 15.9537 22.2741 15.9537 22.4303H15.0638C15.0638 22.2131 15.1359 22.0104 15.2799 21.8224C15.4239 21.632 15.6193 21.4831 15.8658 21.3757C16.1149 21.2682 16.392 21.2145 16.6971 21.2145C17.161 21.2145 17.5309 21.3317 17.8068 21.5661C18.0827 21.798 18.2243 22.1252 18.2316 22.5475V24.3347C18.2316 24.6911 18.2816 24.9755 18.3817 25.1879V25.2502H17.4735ZM16.4957 24.6093C16.6715 24.6093 16.8363 24.5666 16.9901 24.4811C17.1464 24.3957 17.2636 24.2809 17.3417 24.1369V23.3898H16.8619C16.5324 23.3898 16.2845 23.4472 16.1185 23.5619C15.9525 23.6767 15.8695 23.839 15.8695 24.049C15.8695 24.2199 15.9257 24.3566 16.038 24.4592C16.1527 24.5593 16.3053 24.6093 16.4957 24.6093Z" fill="#C7D0D9"/>
<path d="M20.4911 23.9758L21.2968 21.2878H22.2453L20.6706 25.8508C20.4289 26.5173 20.0187 26.8505 19.4401 26.8505C19.3107 26.8505 19.1679 26.8286 19.0116 26.7846V26.0961L19.1801 26.1071C19.4047 26.1071 19.5731 26.0656 19.6855 25.9826C19.8002 25.9021 19.8905 25.7653 19.9564 25.5725L20.0846 25.2319L18.693 21.2878H19.6525L20.4911 23.9758Z" fill="#C7D0D9"/>
<path d="M30.1252 4.99979H27.7841V4.49998C27.7841 3.28659 27.3069 2.1484 26.4403 1.29489C25.5739 0.441635 24.4282 -0.0163064 23.2144 0.000443725C20.7715 0.037694 18.7841 2.08252 18.7841 4.55879V4.99979H13.2162V4.49998C13.2162 3.28659 12.7389 2.1484 11.8723 1.29489C11.006 0.441697 9.86239 -0.0163064 8.64644 0.000506226C6.20355 0.037694 4.21609 2.08258 4.21609 4.55879V4.99979H1.87501C0.841131 4.99979 0 5.84093 0 6.87481V30.125C0 31.1589 0.841131 32 1.87501 32H30.1252C31.1591 32 32.0002 31.1589 32.0002 30.125V6.87481C32.0002 5.84093 31.1591 4.99979 30.1252 4.99979ZM20.0341 4.55879C20.0341 2.7614 21.4694 1.27727 23.2334 1.25033C23.2504 1.25008 23.2674 1.24995 23.2843 1.24995C24.1419 1.24995 24.9494 1.58102 25.5631 2.18546C26.1893 2.80215 26.5341 3.6241 26.5341 4.49998V4.99979H25.2841V4.53373C25.2841 3.43484 24.4392 2.54215 23.3607 2.5014C22.8117 2.48028 22.2927 2.6789 21.8975 3.05959C21.5019 3.44047 21.2841 3.95204 21.2841 4.49998V6.74981C21.2841 7.47388 21.6778 8.14344 22.3115 8.49713C22.5292 8.61863 22.6592 8.82814 22.6592 9.05745C22.6592 9.28101 22.5439 9.48333 22.3509 9.59877C22.2611 9.65233 22.0232 9.76127 21.7507 9.6147C20.6919 9.04526 20.0341 7.9475 20.0341 6.74981V4.55879ZM22.5341 4.99979V4.49998C22.5341 4.29485 22.616 4.10304 22.7645 3.95997C22.913 3.8171 23.1077 3.74285 23.3136 3.75047C23.7109 3.76553 24.0341 4.11685 24.0341 4.53373V4.99979H22.5341ZM5.4661 4.55879C5.4661 2.7614 6.90136 1.27727 8.66544 1.25033C8.68244 1.25008 8.69938 1.24995 8.71632 1.24995C9.57389 1.24995 10.3814 1.58102 10.9951 2.18546C11.6213 2.80215 11.9661 3.6241 11.9661 4.49998V4.99979H10.7161V4.53373C10.7161 3.43484 9.8712 2.54215 8.79275 2.5014C8.24306 2.48028 7.72475 2.6789 7.32949 3.05959C6.93393 3.44047 6.71611 3.95204 6.71611 4.49998V6.74981C6.71611 7.47388 7.1098 8.14344 7.7435 8.49713C7.96119 8.61863 8.09119 8.82814 8.09119 9.05745C8.09119 9.28101 7.97594 9.48333 7.78287 9.59877C7.69312 9.65233 7.45518 9.76127 7.18274 9.6147C6.12392 9.04526 5.4661 7.9475 5.4661 6.74981V4.55879ZM7.96612 4.99979V4.49998C7.96612 4.29485 8.048 4.10304 8.19656 3.95997C8.345 3.8171 8.53975 3.74285 8.74557 3.75047C9.14288 3.76553 9.46614 4.11685 9.46614 4.53373V4.99979H7.96612ZM1.87501 6.2498H4.21609V6.74981C4.21609 8.40832 5.12604 9.92796 6.59067 10.7157C6.8673 10.8644 7.1678 10.9385 7.46818 10.9385C7.79762 10.9385 8.127 10.8493 8.42406 10.6718C8.99832 10.3286 9.34113 9.72514 9.34113 9.05751C9.34113 8.37895 8.96238 7.746 8.35275 7.40569C8.11431 7.27262 7.96612 7.02131 7.96612 6.74987V6.24987H18.7841V6.74987C18.7841 8.40838 19.694 9.92802 21.1587 10.7157C21.4353 10.8645 21.7358 10.9386 22.0362 10.9386C22.3656 10.9386 22.695 10.8494 22.9921 10.6718C23.5663 10.3286 23.9091 9.7252 23.9091 9.05757C23.9091 8.37901 23.5304 7.74607 22.9207 7.40575C22.6823 7.27269 22.5341 7.02137 22.5341 6.74993V6.24993H30.1252C30.4699 6.24993 30.7502 6.53031 30.7502 6.87493V13.3752H1.25001V6.87481C1.25001 6.53018 1.53039 6.2498 1.87501 6.2498ZM30.1252 30.75H1.87501C1.53039 30.75 1.25001 30.4696 1.25001 30.125V14.6251H30.7502V30.125C30.7502 30.4696 30.4699 30.75 30.1252 30.75Z" fill="#C7D0D9"/>
</svg>
