<svg width="32" height="32" viewBox="0 0 32 32" fill="none" xmlns="http://www.w3.org/2000/svg">
<path d="M30.1252 4.99979H27.7841V4.49998C27.7841 3.28659 27.3069 2.1484 26.4403 1.29489C25.5739 0.441635 24.4282 -0.0163064 23.2144 0.000443725C20.7715 0.037694 18.7841 2.08252 18.7841 4.55879V4.99979H13.2162V4.49998C13.2162 3.28659 12.7389 2.1484 11.8723 1.29489C11.006 0.441697 9.86239 -0.0163064 8.64644 0.000506226C6.20355 0.037694 4.21609 2.08258 4.21609 4.55879V4.99979H1.87501C0.841131 4.99979 0 5.84093 0 6.87481V30.125C0 31.1589 0.841131 32 1.87501 32H30.1252C31.1591 32 32.0002 31.1589 32.0002 30.125V6.87481C32.0002 5.84093 31.1591 4.99979 30.1252 4.99979ZM20.0341 4.55879C20.0341 2.7614 21.4694 1.27727 23.2334 1.25033C23.2504 1.25008 23.2674 1.24995 23.2843 1.24995C24.1419 1.24995 24.9494 1.58102 25.5631 2.18546C26.1893 2.80215 26.5341 3.6241 26.5341 4.49998V4.99979H25.2841V4.53373C25.2841 3.43484 24.4392 2.54215 23.3607 2.5014C22.8117 2.48028 22.2927 2.6789 21.8975 3.05959C21.5019 3.44047 21.2841 3.95204 21.2841 4.49998V6.74981C21.2841 7.47388 21.6778 8.14344 22.3115 8.49713C22.5292 8.61863 22.6592 8.82814 22.6592 9.05745C22.6592 9.28101 22.5439 9.48333 22.3509 9.59877C22.2611 9.65233 22.0232 9.76127 21.7507 9.6147C20.6919 9.04526 20.0341 7.9475 20.0341 6.74981V4.55879ZM22.5341 4.99979V4.49998C22.5341 4.29485 22.616 4.10304 22.7645 3.95997C22.913 3.8171 23.1077 3.74285 23.3136 3.75047C23.7109 3.76553 24.0341 4.11685 24.0341 4.53373V4.99979H22.5341ZM5.4661 4.55879C5.4661 2.7614 6.90136 1.27727 8.66544 1.25033C8.68244 1.25008 8.69938 1.24995 8.71632 1.24995C9.57389 1.24995 10.3814 1.58102 10.9951 2.18546C11.6213 2.80215 11.9661 3.6241 11.9661 4.49998V4.99979H10.7161V4.53373C10.7161 3.43484 9.8712 2.54215 8.79275 2.5014C8.24306 2.48028 7.72475 2.6789 7.32949 3.05959C6.93393 3.44047 6.71611 3.95204 6.71611 4.49998V6.74981C6.71611 7.47388 7.1098 8.14344 7.7435 8.49713C7.96119 8.61863 8.09119 8.82814 8.09119 9.05745C8.09119 9.28101 7.97594 9.48333 7.78287 9.59877C7.69312 9.65233 7.45518 9.76127 7.18274 9.6147C6.12392 9.04526 5.4661 7.9475 5.4661 6.74981V4.55879ZM7.96612 4.99979V4.49998C7.96612 4.29485 8.048 4.10304 8.19656 3.95997C8.345 3.8171 8.53975 3.74285 8.74557 3.75047C9.14288 3.76553 9.46614 4.11685 9.46614 4.53373V4.99979H7.96612ZM1.87501 6.2498H4.21609V6.74981C4.21609 8.40832 5.12604 9.92796 6.59067 10.7157C6.8673 10.8644 7.1678 10.9385 7.46818 10.9385C7.79762 10.9385 8.127 10.8493 8.42406 10.6718C8.99832 10.3286 9.34113 9.72514 9.34113 9.05751C9.34113 8.37895 8.96238 7.746 8.35275 7.40569C8.11431 7.27262 7.96612 7.02131 7.96612 6.74987V6.24987H18.7841V6.74987C18.7841 8.40838 19.694 9.92802 21.1587 10.7157C21.4353 10.8645 21.7358 10.9386 22.0362 10.9386C22.3656 10.9386 22.695 10.8494 22.9921 10.6718C23.5663 10.3286 23.9091 9.7252 23.9091 9.05757C23.9091 8.37901 23.5304 7.74607 22.9207 7.40575C22.6823 7.27269 22.5341 7.02137 22.5341 6.74993V6.24993H30.1252C30.4699 6.24993 30.7502 6.53031 30.7502 6.87493V13.3752H1.25001V6.87481C1.25001 6.53018 1.53039 6.2498 1.87501 6.2498ZM30.1252 30.75H1.87501C1.53039 30.75 1.25001 30.4696 1.25001 30.125V14.6251H30.7502V30.125C30.7502 30.4696 30.4699 30.75 30.1252 30.75Z" fill="#C7D0D9"/>
<path d="M5.85938 19.3125L7.5 23.6719L9.13672 19.3125H10.4141V25H9.42969V23.125L9.52734 20.6172L7.84766 25H7.14062L5.46484 20.6211L5.5625 23.125V25H4.57812V19.3125H5.85938Z" fill="#C7D0D9"/>
<path d="M11.3164 22.8477C11.3164 22.4336 11.3984 22.0612 11.5625 21.7305C11.7266 21.3971 11.957 21.1419 12.2539 20.9648C12.5508 20.7852 12.8919 20.6953 13.2773 20.6953C13.8477 20.6953 14.3099 20.8789 14.6641 21.2461C15.0208 21.6133 15.2135 22.1003 15.2422 22.707L15.2461 22.9297C15.2461 23.3464 15.1654 23.7188 15.0039 24.0469C14.8451 24.375 14.6159 24.6289 14.3164 24.8086C14.0195 24.9883 13.6758 25.0781 13.2852 25.0781C12.6888 25.0781 12.2109 24.8802 11.8516 24.4844C11.4948 24.0859 11.3164 23.556 11.3164 22.8945V22.8477ZM12.2656 22.9297C12.2656 23.3646 12.3555 23.7057 12.5352 23.9531C12.7148 24.1979 12.9648 24.3203 13.2852 24.3203C13.6055 24.3203 13.8542 24.1953 14.0312 23.9453C14.2109 23.6953 14.3008 23.3294 14.3008 22.8477C14.3008 22.4206 14.2083 22.082 14.0234 21.832C13.8411 21.582 13.5924 21.457 13.2773 21.457C12.9674 21.457 12.7214 21.5807 12.5391 21.8281C12.3568 22.0729 12.2656 22.4401 12.2656 22.9297Z" fill="#C7D0D9"/>
<path d="M16.9297 20.7734L16.957 21.2617C17.2695 20.8841 17.6797 20.6953 18.1875 20.6953C19.0677 20.6953 19.5156 21.1992 19.5312 22.207V25H18.582V22.2617C18.582 21.9935 18.5234 21.7956 18.4062 21.668C18.2917 21.5378 18.1029 21.4727 17.8398 21.4727C17.457 21.4727 17.1719 21.6458 16.9844 21.9922V25H16.0352V20.7734H16.9297Z" fill="#C7D0D9"/>
<path d="M21.6914 19.7461V20.7734H22.4375V21.4766H21.6914V23.8359C21.6914 23.9974 21.7227 24.1146 21.7852 24.1875C21.8503 24.2578 21.9648 24.293 22.1289 24.293C22.2383 24.293 22.349 24.2799 22.4609 24.2539V24.9883C22.2448 25.0482 22.0365 25.0781 21.8359 25.0781C21.1068 25.0781 20.7422 24.6758 20.7422 23.8711V21.4766H20.0469V20.7734H20.7422V19.7461H21.6914Z" fill="#C7D0D9"/>
<path d="M24.1016 21.2344C24.4115 20.875 24.8034 20.6953 25.2773 20.6953C26.1784 20.6953 26.6354 21.2096 26.6484 22.2383V25H25.6992V22.2734C25.6992 21.9818 25.6354 21.776 25.5078 21.6562C25.3828 21.5339 25.1979 21.4727 24.9531 21.4727C24.5729 21.4727 24.2891 21.6419 24.1016 21.9805V25H23.1523V19H24.1016V21.2344Z" fill="#C7D0D9"/>
</svg>
