<svg width="32" height="32" viewBox="0 0 32 32" fill="none" xmlns="http://www.w3.org/2000/svg">
<path d="M23.3333 16.6666H8.66667C8.29867 16.6666 8 16.368 8 16C8 15.632 8.29867 15.3333 8.66667 15.3333H23.3333C23.7013 15.3333 24 15.632 24 16C24 16.368 23.7013 16.6666 23.3333 16.6666Z" fill="#C7D0D9"/>
<path d="M16 24C15.632 24 15.3333 23.7013 15.3333 23.3333V8.66667C15.3333 8.29867 15.632 8 16 8C16.368 8 16.6667 8.29867 16.6667 8.66667V23.3333C16.6667 23.7013 16.368 24 16 24Z" fill="#C7D0D9"/>
<path d="M28.6667 32H3.33333C1.49467 32 0 30.504 0 28.6667V3.33333C0 1.496 1.49467 0 3.33333 0H28.6667C30.5053 0 32 1.496 32 3.33333V28.6667C32 30.504 30.5053 32 28.6667 32ZM3.33333 1.33333C2.23067 1.33333 1.33333 2.23067 1.33333 3.33333V28.6667C1.33333 29.7693 2.23067 30.6667 3.33333 30.6667H28.6667C29.7693 30.6667 30.6667 29.7693 30.6667 28.6667V3.33333C30.6667 2.23067 29.7693 1.33333 28.6667 1.33333H3.33333Z" fill="#C7D0D9"/>
</svg>
