<svg width="32" height="32" viewBox="0 0 32 32" fill="none" xmlns="http://www.w3.org/2000/svg">
<path d="M10.7816 22.445L12.0084 19.9181H13.0338L11.2467 23.2873V25.2502H10.3165V23.2873L8.5257 19.9181H9.55476L10.7816 22.445Z" fill="#C7D0D9"/>
<path d="M15.0297 25.3234C14.4657 25.3234 14.0079 25.1464 13.6564 24.7924C13.3072 24.4359 13.1327 23.9623 13.1327 23.3715V23.2616C13.1327 22.8661 13.2084 22.5133 13.3597 22.2033C13.5135 21.8908 13.7284 21.6478 14.0043 21.4745C14.2801 21.3012 14.5878 21.2145 14.9271 21.2145C15.4667 21.2145 15.8829 21.3866 16.1759 21.7308C16.4713 22.0751 16.619 22.5622 16.619 23.192V23.5509H14.0299C14.0567 23.8781 14.1654 24.1369 14.3558 24.3273C14.5487 24.5177 14.7904 24.613 15.0809 24.613C15.4886 24.613 15.8207 24.4482 16.077 24.1186L16.5568 24.5763C16.3981 24.8131 16.1857 24.9975 15.9196 25.1293C15.6559 25.2587 15.3592 25.3234 15.0297 25.3234ZM14.9235 21.9286C14.6793 21.9286 14.4816 22.0141 14.3302 22.185C14.1813 22.3559 14.086 22.5939 14.0445 22.8991H15.7401V22.8332C15.7206 22.5353 15.6412 22.3107 15.5021 22.1593C15.3629 22.0055 15.17 21.9286 14.9235 21.9286Z" fill="#C7D0D9"/>
<path d="M19.6806 25.2502C19.6415 25.1745 19.6073 25.0512 19.578 24.8803C19.2948 25.1757 18.9481 25.3234 18.538 25.3234C18.14 25.3234 17.8153 25.2099 17.5639 24.9828C17.3124 24.7558 17.1867 24.475 17.1867 24.1405C17.1867 23.7182 17.3429 23.3947 17.6554 23.1701C17.9704 22.943 18.4196 22.8295 19.0031 22.8295H19.5487V22.5695C19.5487 22.3644 19.4914 22.2008 19.3766 22.0788C19.2619 21.9542 19.0873 21.892 18.8529 21.892C18.6503 21.892 18.4843 21.9433 18.3549 22.0458C18.2255 22.1459 18.1608 22.2741 18.1608 22.4303H17.2709C17.2709 22.213 17.3429 22.0104 17.4869 21.8224C17.631 21.632 17.8263 21.483 18.0729 21.3756C18.3219 21.2682 18.599 21.2145 18.9042 21.2145C19.3681 21.2145 19.7379 21.3317 20.0138 21.5661C20.2897 21.798 20.4313 22.1251 20.4386 22.5475V24.3346C20.4386 24.6911 20.4887 24.9755 20.5888 25.1879V25.2502H19.6806ZM18.7028 24.6093C18.8786 24.6093 19.0434 24.5666 19.1972 24.4811C19.3534 24.3957 19.4706 24.2809 19.5487 24.1369V23.3898H19.069C18.7394 23.3898 18.4916 23.4472 18.3256 23.5619C18.1596 23.6767 18.0766 23.839 18.0766 24.049C18.0766 24.2199 18.1327 24.3566 18.245 24.4591C18.3598 24.5592 18.5123 24.6093 18.7028 24.6093Z" fill="#C7D0D9"/>
<path d="M23.4452 22.1007C23.3281 22.0812 23.2072 22.0714 23.0827 22.0714C22.675 22.0714 22.4003 22.2277 22.2587 22.5402V25.2502H21.3688V21.2877H22.2184L22.2404 21.7308C22.4552 21.3866 22.7531 21.2145 23.134 21.2145C23.2609 21.2145 23.3659 21.2316 23.4489 21.2658L23.4452 22.1007Z" fill="#C7D0D9"/>
<path d="M30.1252 4.99979H27.7841V4.49998C27.7841 3.28659 27.3069 2.1484 26.4403 1.29489C25.5739 0.441635 24.4282 -0.0163064 23.2144 0.000443725C20.7715 0.037694 18.7841 2.08252 18.7841 4.55879V4.99979H13.2162V4.49998C13.2162 3.28659 12.7389 2.1484 11.8723 1.29489C11.006 0.441697 9.86239 -0.0163064 8.64644 0.000506226C6.20355 0.037694 4.21609 2.08258 4.21609 4.55879V4.99979H1.87501C0.841131 4.99979 0 5.84093 0 6.87481V30.125C0 31.1589 0.841131 32 1.87501 32H30.1252C31.1591 32 32.0002 31.1589 32.0002 30.125V6.87481C32.0002 5.84093 31.1591 4.99979 30.1252 4.99979ZM20.0341 4.55879C20.0341 2.7614 21.4694 1.27727 23.2334 1.25033C23.2504 1.25008 23.2674 1.24995 23.2843 1.24995C24.1419 1.24995 24.9494 1.58102 25.5631 2.18546C26.1893 2.80215 26.5341 3.6241 26.5341 4.49998V4.99979H25.2841V4.53373C25.2841 3.43484 24.4392 2.54215 23.3607 2.5014C22.8117 2.48028 22.2927 2.6789 21.8975 3.05959C21.5019 3.44047 21.2841 3.95204 21.2841 4.49998V6.74981C21.2841 7.47388 21.6778 8.14344 22.3115 8.49713C22.5292 8.61863 22.6592 8.82814 22.6592 9.05745C22.6592 9.28101 22.5439 9.48333 22.3509 9.59877C22.2611 9.65233 22.0232 9.76127 21.7507 9.6147C20.6919 9.04526 20.0341 7.9475 20.0341 6.74981V4.55879ZM22.5341 4.99979V4.49998C22.5341 4.29485 22.616 4.10304 22.7645 3.95997C22.913 3.8171 23.1077 3.74285 23.3136 3.75047C23.7109 3.76553 24.0341 4.11685 24.0341 4.53373V4.99979H22.5341ZM5.4661 4.55879C5.4661 2.7614 6.90136 1.27727 8.66544 1.25033C8.68244 1.25008 8.69938 1.24995 8.71632 1.24995C9.57389 1.24995 10.3814 1.58102 10.9951 2.18546C11.6213 2.80215 11.9661 3.6241 11.9661 4.49998V4.99979H10.7161V4.53373C10.7161 3.43484 9.8712 2.54215 8.79275 2.5014C8.24306 2.48028 7.72475 2.6789 7.32949 3.05959C6.93393 3.44047 6.71611 3.95204 6.71611 4.49998V6.74981C6.71611 7.47388 7.1098 8.14344 7.7435 8.49713C7.96119 8.61863 8.09119 8.82814 8.09119 9.05745C8.09119 9.28101 7.97594 9.48333 7.78287 9.59877C7.69312 9.65233 7.45518 9.76127 7.18274 9.6147C6.12392 9.04526 5.4661 7.9475 5.4661 6.74981V4.55879ZM7.96612 4.99979V4.49998C7.96612 4.29485 8.048 4.10304 8.19656 3.95997C8.345 3.8171 8.53975 3.74285 8.74557 3.75047C9.14288 3.76553 9.46614 4.11685 9.46614 4.53373V4.99979H7.96612ZM1.87501 6.2498H4.21609V6.74981C4.21609 8.40832 5.12604 9.92796 6.59067 10.7157C6.8673 10.8644 7.1678 10.9385 7.46818 10.9385C7.79762 10.9385 8.127 10.8493 8.42406 10.6718C8.99832 10.3286 9.34113 9.72514 9.34113 9.05751C9.34113 8.37895 8.96238 7.746 8.35275 7.40569C8.11431 7.27262 7.96612 7.02131 7.96612 6.74987V6.24987H18.7841V6.74987C18.7841 8.40838 19.694 9.92802 21.1587 10.7157C21.4353 10.8645 21.7358 10.9386 22.0362 10.9386C22.3656 10.9386 22.695 10.8494 22.9921 10.6718C23.5663 10.3286 23.9091 9.7252 23.9091 9.05757C23.9091 8.37901 23.5304 7.74607 22.9207 7.40575C22.6823 7.27269 22.5341 7.02137 22.5341 6.74993V6.24993H30.1252C30.4699 6.24993 30.7502 6.53031 30.7502 6.87493V13.3752H1.25001V6.87481C1.25001 6.53018 1.53039 6.2498 1.87501 6.2498ZM30.1252 30.75H1.87501C1.53039 30.75 1.25001 30.4696 1.25001 30.125V14.6251H30.7502V30.125C30.7502 30.4696 30.4699 30.75 30.1252 30.75Z" fill="#C7D0D9"/>
</svg>
